<svg xmlns="http://www.w3.org/2000/svg" viewBox="0 0 64 64" fill="none" stroke="#E7C27A" stroke-width="1.6" stroke-linecap="round" stroke-linejoin="round">
  <rect x="11" y="19" width="42" height="29" rx="3"/>
  <path d="m11.5 20.5 20.5 16 20.5-16"/>
  <path d="m11.5 47 15-12M52.5 47l-15-12"/>
  <path d="M32 44.5s-6-3.6-6-7.4c0-2 1.5-3.4 3.2-3.4 1.3 0 2.2.7 2.8 1.7.6-1 1.5-1.7 2.8-1.7 1.7 0 3.2 1.4 3.2 3.4 0 3.8-6 7.4-6 7.4Z" fill="#E7C27A" fill-opacity=".25"/>
  <path d="M32 8v6M24 11l2 4M40 11l-2 4"/>
</svg>
